<svg xmlns="http://www.w3.org/2000/svg" width="1920" height="1080" viewBox="0 0 1920 1080">
  <!-- 背景渐变 -->
  <defs>
    <linearGradient id="bg-gradient" x1="0%" y1="0%" x2="100%" y2="100%">
      <stop offset="0%" style="stop-color:#1a237e;stop-opacity:1" />
      <stop offset="50%" style="stop-color:#283593;stop-opacity:1" />
      <stop offset="100%" style="stop-color:#303f9f;stop-opacity:1" />
    </linearGradient>
    
    <!-- 书本图案 -->
    <pattern id="book-pattern" patternUnits="userSpaceOnUse" width="200" height="200" patternTransform="rotate(10)">
      <rect width="30" height="120" x="10" y="40" fill="#5c6bc0" opacity="0.2" rx="2" />
      <rect width="25" height="110" x="45" y="45" fill="#7986cb" opacity="0.2" rx="2" />
      <rect width="35" height="130" x="75" y="35" fill="#3949ab" opacity="0.2" rx="2" />
      <rect width="20" height="100" x="115" y="50" fill="#9fa8da" opacity="0.2" rx="2" />
      <rect width="40" height="125" x="140" y="38" fill="#5c6bc0" opacity="0.2" rx="2" />
    </pattern>
    
    <!-- 波浪效果 -->
    <path id="wave" d="M0,160 C320,200 420,100 640,120 C860,140 980,200 1200,180 C1420,160 1540,100 1760,120 C1880,130 1920,140 1920,140 L1920,1080 L0,1080 Z" />
  </defs>
  
  <!-- 主背景 -->
  <rect width="1920" height="1080" fill="url(#bg-gradient)" />
  
  <!-- 书本图案填充 -->
  <rect width="1920" height="1080" fill="url(#book-pattern)" opacity="0.15" />
  
  <!-- 波浪装饰 -->
  <g opacity="0.3">
    <use href="#wave" fill="#c5cae9" transform="translate(0,0)" />
    <use href="#wave" fill="#9fa8da" transform="translate(0,50)" />
  </g>
  
  <!-- 圆形装饰 -->
  <circle cx="200" cy="200" r="300" fill="#3949ab" opacity="0.05" />
  <circle cx="1700" cy="800" r="250" fill="#5c6bc0" opacity="0.05" />
  
  <!-- 知识元素 -->
  <g opacity="0.1" transform="translate(1600,200) scale(0.8)">
    <circle cx="0" cy="0" r="80" fill="#c5cae9" />
    <path d="M-60,-20 L60,-20 M-60,0 L60,0 M-60,20 L60,20" stroke="#1a237e" stroke-width="8" />
  </g>
  
  <g opacity="0.1" transform="translate(300,800) scale(0.6)">
    <circle cx="0" cy="0" r="80" fill="#c5cae9" />
    <path d="M-60,-20 L60,-20 M-60,0 L60,0 M-60,20 L60,20" stroke="#1a237e" stroke-width="8" />
  </g>
</svg>